<?xml version="1.0" encoding="UTF-8"?>
<svg width="24px" height="16px" viewBox="0 0 24 16" version="1.1" xmlns="http://www.w3.org/2000/svg" xmlns:xlink="http://www.w3.org/1999/xlink">
    <title>krediler</title>
    <g id="Page-1" stroke="none" stroke-width="1" fill="none" fill-rule="evenodd">
        <g id="Mobil_" transform="translate(-18.000000, -346.000000)" fill="#1464A5">
            <path d="M42,350 L42,362 L22,362 L24,360 L40,360 L40,352 L42,350 Z M38,346 L38,358 L18,358 L18,346 L38,346 Z M28,350 C26.8954305,350 26,350.895431 26,352 C26,353.104569 26.8954305,354 28,354 C29.1045695,354 30,353.104569 30,352 C30,350.895431 29.1045695,350 28,350 Z M24.1259548,351.000243 L22,351 L20,353 L24.1262135,353.000761 C24.0438225,352.680912 24,352.345574 24,352 C24,351.654788 24.0437308,351.31979 24.1259548,351.000243 Z M36,351 L31.8740452,351.000243 C31.9562692,351.31979 32,351.654788 32,352 C32,352.345574 31.9561775,352.680912 31.8737865,353.000761 L34,353 L36,351 Z" id="krediler"></path>
        </g>
    </g>
</svg>