<?xml version="1.0" encoding="UTF-8"?>
<svg width="22px" height="19px" viewBox="0 0 22 19" version="1.1" xmlns="http://www.w3.org/2000/svg" xmlns:xlink="http://www.w3.org/1999/xlink">
    <title>mevduat</title>
    <g id="Page-1" stroke="none" stroke-width="1" fill="none" fill-rule="evenodd">
        <g id="Mobil_" transform="translate(-19.000000, -232.000000)" fill="#1464A5">
            <path d="M40,235 C40.5522847,235 41,235.447715 41,236 L41,250 C41,250.552285 40.5522847,251 40,251 L20,251 C19.4477153,251 19,250.552285 19,250 L19,236 C19,235.447715 19.4477153,235 20,235 L40,235 Z M28,241 L21,241 L21,249 L24,249 L28,241 Z M37,241 C35.8954305,241 35,241.895431 35,243 C35,244.104569 35.8954305,245 37,245 C38.1045695,245 39,244.104569 39,243 C39,241.895431 38.1045695,241 37,241 Z M30,237 L21,237 L21,239 L29,239 L30,237 Z M38,232 C38.5522847,232 39,232.447715 39,233 L39,234 L21,234 L21,233 C21,232.447715 21.4477153,232 22,232 L38,232 Z" id="mevduat"></path>
        </g>
    </g>
</svg>