<?xml version="1.0" encoding="UTF-8"?>
<svg width="20px" height="20px" viewBox="0 0 20 20" version="1.1" xmlns="http://www.w3.org/2000/svg" xmlns:xlink="http://www.w3.org/1999/xlink">
    <title>yatirim</title>
    <g id="Page-1" stroke="none" stroke-width="1" fill="none" fill-rule="evenodd">
        <g id="Mobil_" transform="translate(-20.000000, -398.000000)" fill="#1464A5">
            <path d="M31.5936457,409.304614 C33.6273211,407.42878 36.7966394,407.556641 38.6725503,409.590316 L38.6725503,409.590316 L34.8752566,413.38761 L32.6525257,411.164879 L31.5411602,412.276244 L34.8752566,415.613424 L36.069011,414.41728 L39.5572496,410.931354 C40.4434903,412.894432 39.9720463,415.207028 38.3867706,416.669221 C36.3531722,418.545055 33.1838539,418.417194 31.307943,416.383518 C29.4320322,414.349843 29.5599702,411.180447 31.5936457,409.304614 Z M28.5820996,414.144857 C28.6785156,414.684355 28.8410586,415.200885 29.0613278,415.686279 L29.0613278,415.686279 L20,415.686279 L20,414.144857 Z M36.1849337,405.744105 L36.1849337,401.119839 L31.5606669,401.119839 L33.1020892,402.661261 L29.2485335,406.514817 L25.3949779,402.661261 L22.4009964,405.655242 L22.4009964,399.60069 L37.7912498,399.60069 L37.7912498,407.213004 C38.3696685,407.475431 38.9084727,407.81755 39.3919398,408.229418 L39.3919398,398.800306 C39.3919398,398.358304 39.0336362,398 38.5916334,398 L21.6006899,398 C21.15861,398 20.8003835,398.358304 20.8003835,398.800306 L20.8003835,411.837039 C20.8003835,412.279042 21.15861,412.637269 21.6006899,412.637269 L28.8140837,412.637269 C28.8069931,412.510872 28.8029854,412.383628 28.8029854,412.255535 C28.8035249,411.84675 28.8407503,411.438813 28.9141991,411.036656 L22.4009964,411.036656 L22.4009964,408.738087 L25.3949779,405.744105 L29.2485335,409.597661 L34.6435115,404.202683 L36.1849337,405.744105 Z" id="yatirim"></path>
        </g>
    </g>
</svg>